<svg width="380" height="380" viewBox="0 0 380 380" fill="none" xmlns="http://www.w3.org/2000/svg">
<mask id="path-2-inside-1_19_693" fill="white">
<path fill-rule="evenodd" clip-rule="evenodd" d="M109 368C109 369.657 107.657 371 106 371L12 371C10.3431 371 9 369.657 9 368L9 274C9 272.343 10.3431 271 12 271L40.7509 271C43.0108 271 44.5172 273.472 44.1744 275.706C44.0596 276.454 44 277.22 44 278C44 286.284 50.7157 293 59 293C67.2843 293 74 286.284 74 278C74 277.22 73.9404 276.454 73.8256 275.706C73.4827 273.472 74.9892 271 77.249 271L106 271C107.657 271 109 272.343 109 274L109 302.751C109 305.011 106.528 306.517 104.294 306.174C103.546 306.06 102.78 306 102 306C93.7157 306 87 312.716 87 321C87 329.284 93.7157 336 102 336C102.78 336 103.546 335.94 104.294 335.826C106.528 335.483 109 336.989 109 339.249L109 368Z"/>
</mask>
<path fill-rule="evenodd" clip-rule="evenodd" d="M109 368C109 369.657 107.657 371 106 371L12 371C10.3431 371 9 369.657 9 368L9 274C9 272.343 10.3431 271 12 271L40.7509 271C43.0108 271 44.5172 273.472 44.1744 275.706C44.0596 276.454 44 277.22 44 278C44 286.284 50.7157 293 59 293C67.2843 293 74 286.284 74 278C74 277.22 73.9404 276.454 73.8256 275.706C73.4827 273.472 74.9892 271 77.249 271L106 271C107.657 271 109 272.343 109 274L109 302.751C109 305.011 106.528 306.517 104.294 306.174C103.546 306.06 102.78 306 102 306C93.7157 306 87 312.716 87 321C87 329.284 93.7157 336 102 336C102.78 336 103.546 335.94 104.294 335.826C106.528 335.483 109 336.989 109 339.249L109 368Z" fill="#DCDCDC"/>
<path d="M12 372L106 372L106 370L12 370L12 372ZM8 274L8 368L10 368L10 274L8 274ZM40.7509 270L12 270L12 272L40.7509 272L40.7509 270ZM45 278C45 277.271 45.0557 276.555 45.1628 275.857L43.186 275.554C43.0635 276.352 43 277.169 43 278L45 278ZM59 292C51.268 292 45 285.732 45 278L43 278C43 286.837 50.1634 294 59 294L59 292ZM73 278C73 285.732 66.732 292 59 292L59 294C67.8366 294 75 286.837 75 278L73 278ZM72.8372 275.857C72.9443 276.555 73 277.271 73 278L75 278C75 277.169 74.9365 276.352 74.814 275.554L72.8372 275.857ZM106 270L77.249 270L77.249 272L106 272L106 270ZM110 302.751L110 274L108 274L108 302.751L110 302.751ZM102 307C102.729 307 103.445 307.056 104.143 307.163L104.446 305.186C103.648 305.063 102.831 305 102 305L102 307ZM88 321C88 313.268 94.268 307 102 307L102 305C93.1634 305 86 312.163 86 321L88 321ZM102 335C94.268 335 88 328.732 88 321L86 321C86 329.837 93.1634 337 102 337L102 335ZM104.143 334.837C103.445 334.944 102.729 335 102 335L102 337C102.831 337 103.648 336.937 104.446 336.814L104.143 334.837ZM110 368L110 339.249L108 339.249L108 368L110 368ZM108 302.751C108 303.484 107.605 304.143 106.919 304.614C106.224 305.092 105.303 305.317 104.446 305.186L104.143 307.163C105.52 307.374 106.951 307.018 108.051 306.263C109.159 305.502 110 304.278 110 302.751L108 302.751ZM106 272C107.105 272 108 272.895 108 274L110 274C110 271.791 108.209 270 106 270L106 272ZM40.7509 272C41.484 272 42.1429 272.395 42.6144 273.081C43.0916 273.776 43.3175 274.697 43.186 275.554L45.1628 275.857C45.3742 274.48 45.0182 273.049 44.263 271.949C43.502 270.841 42.2778 270 40.7509 270L40.7509 272ZM74.814 275.554C74.6825 274.697 74.9084 273.776 75.3856 273.081C75.857 272.395 76.516 272 77.249 272L77.249 270C75.7222 270 74.498 270.841 73.737 271.949C72.9817 273.049 72.6258 274.48 72.8372 275.857L74.814 275.554ZM104.446 336.814C105.303 336.683 106.224 336.908 106.919 337.386C107.605 337.857 108 338.516 108 339.249L110 339.249C110 337.722 109.159 336.498 108.051 335.737C106.951 334.982 105.52 334.626 104.143 334.837L104.446 336.814ZM10 274C10 272.895 10.8954 272 12 272L12 270C9.79086 270 8 271.791 8 274L10 274ZM106 372C108.209 372 110 370.209 110 368L108 368C108 369.105 107.105 370 106 370L106 372ZM12 370C10.8954 370 10 369.105 10 368L8 368C8 370.209 9.79086 372 12 372L12 370Z" fill="white" mask="url(#path-2-inside-1_19_693)"/>
<mask id="path-5-inside-2_19_693" fill="white">
<path fill-rule="evenodd" clip-rule="evenodd" d="M12 109C10.3431 109 9 107.657 9 106L9 12C9 10.3431 10.3431 9 12 9L106 9C107.657 9 109 10.3431 109 12V40.7509C109 43.0108 111.472 44.5173 113.706 44.1744C114.454 44.0596 115.22 44 116 44C124.284 44 131 50.7157 131 59C131 67.2843 124.284 74 116 74C115.22 74 114.454 73.9404 113.706 73.8256C111.472 73.4827 109 74.9892 109 77.249V106C109 107.657 107.657 109 106 109H77.2491C74.9892 109 73.4827 111.472 73.8256 113.706C73.9404 114.454 74 115.22 74 116C74 124.284 67.2843 131 59 131C50.7157 131 44 124.284 44 116C44 115.22 44.0596 114.454 44.1744 113.706C44.5173 111.472 43.0108 109 40.751 109H12Z"/>
</mask>
<path fill-rule="evenodd" clip-rule="evenodd" d="M12 109C10.3431 109 9 107.657 9 106L9 12C9 10.3431 10.3431 9 12 9L106 9C107.657 9 109 10.3431 109 12V40.7509C109 43.0108 111.472 44.5173 113.706 44.1744C114.454 44.0596 115.22 44 116 44C124.284 44 131 50.7157 131 59C131 67.2843 124.284 74 116 74C115.22 74 114.454 73.9404 113.706 73.8256C111.472 73.4827 109 74.9892 109 77.249V106C109 107.657 107.657 109 106 109H77.2491C74.9892 109 73.4827 111.472 73.8256 113.706C73.9404 114.454 74 115.22 74 116C74 124.284 67.2843 131 59 131C50.7157 131 44 124.284 44 116C44 115.22 44.0596 114.454 44.1744 113.706C44.5173 111.472 43.0108 109 40.751 109H12Z" fill="#DCDCDC"/>
<path d="M106 109V108V109ZM113.706 44.1744L113.554 43.186L113.706 44.1744ZM44.1744 113.706L43.186 113.554L44.1744 113.706ZM8 12L8 106H10L10 12H8ZM106 8L12 8V10L106 10V8ZM110 40.7509V12H108V40.7509H110ZM116 43C115.169 43 114.352 43.0635 113.554 43.186L113.857 45.1628C114.555 45.0557 115.271 45 116 45V43ZM132 59C132 50.1634 124.837 43 116 43V45C123.732 45 130 51.268 130 59H132ZM116 75C124.837 75 132 67.8366 132 59H130C130 66.732 123.732 73 116 73V75ZM113.554 74.814C114.352 74.9365 115.169 75 116 75V73C115.271 73 114.555 72.9443 113.857 72.8372L113.554 74.814ZM110 106V77.249H108V106H110ZM77.2491 110H106V108H77.2491V110ZM72.8372 113.857C72.9443 114.555 73 115.271 73 116H75C75 115.169 74.9365 114.352 74.814 113.554L72.8372 113.857ZM73 116C73 123.732 66.732 130 59 130V132C67.8366 132 75 124.837 75 116H73ZM59 130C51.268 130 45 123.732 45 116H43C43 124.837 50.1634 132 59 132V130ZM45 116C45 115.271 45.0557 114.555 45.1628 113.857L43.186 113.554C43.0635 114.352 43 115.169 43 116H45ZM12 110H40.751V108H12V110ZM77.2491 108C75.7222 108 74.498 108.841 73.737 109.949C72.9817 111.049 72.6258 112.48 72.8372 113.857L74.814 113.554C74.6825 112.697 74.9084 111.776 75.3856 111.081C75.857 110.395 76.516 110 77.2491 110V108ZM108 106C108 107.105 107.105 108 106 108V110C108.209 110 110 108.209 110 106H108ZM108 40.7509C108 42.2778 108.841 43.502 109.949 44.263C111.049 45.0183 112.48 45.3742 113.857 45.1628L113.554 43.186C112.697 43.3175 111.776 43.0916 111.081 42.6144C110.395 42.143 110 41.484 110 40.7509H108ZM113.857 72.8372C112.48 72.6258 111.049 72.9817 109.949 73.737C108.841 74.498 108 75.7222 108 77.249H110C110 76.516 110.395 75.857 111.081 75.3856C111.776 74.9084 112.697 74.6825 113.554 74.814L113.857 72.8372ZM45.1628 113.857C45.3742 112.48 45.0183 111.049 44.263 109.949C43.502 108.841 42.2778 108 40.751 108V110C41.484 110 42.143 110.395 42.6144 111.081C43.0916 111.776 43.3175 112.697 43.186 113.554L45.1628 113.857ZM106 10C107.105 10 108 10.8954 108 12H110C110 9.79086 108.209 8 106 8V10ZM8 106C8 108.209 9.79086 110 12 110V108C10.8954 108 10 107.105 10 106H8ZM10 12C10 10.8954 10.8954 10 12 10V8C9.79086 8 8 9.79086 8 12H10Z" fill="white" mask="url(#path-5-inside-2_19_693)"/>
<mask id="path-8-inside-3_19_693" fill="white">
<path fill-rule="evenodd" clip-rule="evenodd" d="M44.1744 144.706C44.5173 142.472 43.0108 140 40.7509 140H12C10.3431 140 9 141.343 9 143L9 237C9 238.657 10.3431 240 12 240H40.7509C43.0108 240 44.5173 242.472 44.1744 244.706C44.0596 245.454 44 246.22 44 247C44 255.284 50.7157 262 59 262C67.2843 262 74 255.284 74 247C74 246.22 73.9404 245.454 73.8256 244.706C73.4827 242.472 74.9892 240 77.249 240H106C107.657 240 109 238.657 109 237V208.249C109 205.989 111.472 204.483 113.706 204.826C114.454 204.94 115.22 205 116 205C124.284 205 131 198.284 131 190C131 181.716 124.284 175 116 175C115.22 175 114.454 175.06 113.706 175.174C111.472 175.517 109 174.011 109 171.751V143C109 141.343 107.657 140 106 140L77.2491 140C74.9892 140 73.4827 142.472 73.8256 144.706C73.9404 145.454 74 146.22 74 147C74 155.284 67.2843 162 59 162C50.7157 162 44 155.284 44 147C44 146.22 44.0596 145.454 44.1744 144.706Z"/>
</mask>
<path fill-rule="evenodd" clip-rule="evenodd" d="M44.1744 144.706C44.5173 142.472 43.0108 140 40.7509 140H12C10.3431 140 9 141.343 9 143L9 237C9 238.657 10.3431 240 12 240H40.7509C43.0108 240 44.5173 242.472 44.1744 244.706C44.0596 245.454 44 246.22 44 247C44 255.284 50.7157 262 59 262C67.2843 262 74 255.284 74 247C74 246.22 73.9404 245.454 73.8256 244.706C73.4827 242.472 74.9892 240 77.249 240H106C107.657 240 109 238.657 109 237V208.249C109 205.989 111.472 204.483 113.706 204.826C114.454 204.94 115.22 205 116 205C124.284 205 131 198.284 131 190C131 181.716 124.284 175 116 175C115.22 175 114.454 175.06 113.706 175.174C111.472 175.517 109 174.011 109 171.751V143C109 141.343 107.657 140 106 140L77.2491 140C74.9892 140 73.4827 142.472 73.8256 144.706C73.9404 145.454 74 146.22 74 147C74 155.284 67.2843 162 59 162C50.7157 162 44 155.284 44 147C44 146.22 44.0596 145.454 44.1744 144.706Z" fill="#B4B4B4"/>
<path d="M59 162L59 163L59 162ZM73.8256 144.706L74.814 144.554L73.8256 144.706ZM113.706 204.826L113.554 205.814L113.706 204.826ZM44.1744 244.706L43.186 244.554L44.1744 244.706ZM12 141H40.7509V139H12V141ZM10 237L10 143H8L8 237H10ZM40.7509 239H12V241H40.7509V239ZM45 247C45 246.271 45.0557 245.555 45.1628 244.857L43.186 244.554C43.0635 245.352 43 246.169 43 247H45ZM59 261C51.268 261 45 254.732 45 247H43C43 255.837 50.1634 263 59 263V261ZM73 247C73 254.732 66.732 261 59 261V263C67.8366 263 75 255.837 75 247H73ZM72.8372 244.857C72.9443 245.555 73 246.271 73 247H75C75 246.169 74.9365 245.352 74.814 244.554L72.8372 244.857ZM106 239H77.249V241H106V239ZM108 208.249V237H110V208.249H108ZM116 204C115.271 204 114.555 203.944 113.857 203.837L113.554 205.814C114.352 205.937 115.169 206 116 206V204ZM130 190C130 197.732 123.732 204 116 204V206C124.837 206 132 198.837 132 190H130ZM116 176C123.732 176 130 182.268 130 190H132C132 181.163 124.837 174 116 174V176ZM113.857 176.163C114.555 176.056 115.271 176 116 176V174C115.169 174 114.352 174.063 113.554 174.186L113.857 176.163ZM108 143V171.751L110 171.751V143H108ZM77.2491 141L106 141V139L77.2491 139V141ZM72.8372 144.857C72.9443 145.555 73 146.271 73 147H75C75 146.169 74.9365 145.352 74.814 144.554L72.8372 144.857ZM73 147C73 154.732 66.732 161 59 161L59 163C67.8366 163 75 155.837 75 147H73ZM59 161C51.268 161 45 154.732 45 147H43C43 155.837 50.1634 163 59 163L59 161ZM45 147C45 146.271 45.0557 145.555 45.1628 144.857L43.186 144.554C43.0635 145.352 43 146.169 43 147H45ZM77.2491 139C75.7222 139 74.498 139.841 73.737 140.949C72.9818 142.049 72.6258 143.48 72.8372 144.857L74.814 144.554C74.6825 143.697 74.9084 142.776 75.3856 142.081C75.8571 141.395 76.516 141 77.2491 141V139ZM110 208.249C110 207.516 110.395 206.857 111.081 206.386C111.776 205.908 112.697 205.683 113.554 205.814L113.857 203.837C112.48 203.626 111.049 203.982 109.949 204.737C108.841 205.498 108 206.722 108 208.249H110ZM106 241C108.209 241 110 239.209 110 237H108C108 238.105 107.105 239 106 239V241ZM110 143C110 140.791 108.209 139 106 139V141C107.105 141 108 141.895 108 143H110ZM40.7509 241C41.484 241 42.143 241.395 42.6144 242.081C43.0916 242.776 43.3175 243.697 43.186 244.554L45.1628 244.857C45.3742 243.48 45.0183 242.049 44.263 240.949C43.502 239.841 42.2778 239 40.7509 239V241ZM74.814 244.554C74.6825 243.697 74.9084 242.776 75.3856 242.081C75.857 241.395 76.516 241 77.249 241V239C75.7222 239 74.498 239.841 73.737 240.949C72.9817 242.049 72.6258 243.48 72.8372 244.857L74.814 244.554ZM113.554 174.186C112.697 174.317 111.776 174.092 111.081 173.614C110.395 173.143 110 172.484 110 171.751L108 171.751C108 173.278 108.841 174.502 109.949 175.263C111.049 176.018 112.48 176.374 113.857 176.163L113.554 174.186ZM8 237C8 239.209 9.79086 241 12 241V239C10.8954 239 10 238.105 10 237H8ZM40.7509 141C41.484 141 42.143 141.395 42.6144 142.081C43.0916 142.776 43.3175 143.697 43.186 144.554L45.1628 144.857C45.3742 143.48 45.0183 142.049 44.263 140.949C43.502 139.841 42.2778 139 40.7509 139V141ZM12 139C9.79086 139 8 140.791 8 143H10C10 141.895 10.8954 141 12 141V139Z" fill="white" mask="url(#path-8-inside-3_19_693)"/>
<mask id="path-11-inside-4_19_693" fill="white">
<path fill-rule="evenodd" clip-rule="evenodd" d="M247 175C246.22 175 245.454 175.06 244.706 175.174C242.472 175.517 240 174.011 240 171.751L240 143C240 141.343 238.657 140 237 140L208.249 140C205.989 140 204.483 142.472 204.826 144.706C204.94 145.454 205 146.22 205 147C205 155.284 198.284 162 190 162C181.716 162 175 155.284 175 147C175 146.22 175.06 145.454 175.174 144.706C175.517 142.472 174.011 140 171.751 140L143 140C141.343 140 140 141.343 140 143L140 171.751C140 174.011 142.472 175.517 144.706 175.174C145.454 175.06 146.22 175 147 175C155.284 175 162 181.716 162 190C162 198.284 155.284 205 147 205C146.22 205 145.454 204.94 144.706 204.826C142.472 204.483 140 205.989 140 208.249L140 237C140 238.657 141.343 240 143 240L171.751 240C174.011 240 175.517 237.528 175.174 235.294C175.06 234.546 175 233.78 175 233C175 224.716 181.716 218 190 218C198.284 218 205 224.716 205 233C205 233.78 204.94 234.546 204.826 235.294C204.483 237.528 205.989 240 208.249 240L237 240C238.657 240 240 238.657 240 237L240 208.249C240 205.989 242.472 204.483 244.706 204.826C245.454 204.94 246.22 205 247 205C255.284 205 262 198.284 262 190C262 181.716 255.284 175 247 175Z"/>
</mask>
<path fill-rule="evenodd" clip-rule="evenodd" d="M247 175C246.22 175 245.454 175.06 244.706 175.174C242.472 175.517 240 174.011 240 171.751L240 143C240 141.343 238.657 140 237 140L208.249 140C205.989 140 204.483 142.472 204.826 144.706C204.94 145.454 205 146.22 205 147C205 155.284 198.284 162 190 162C181.716 162 175 155.284 175 147C175 146.22 175.06 145.454 175.174 144.706C175.517 142.472 174.011 140 171.751 140L143 140C141.343 140 140 141.343 140 143L140 171.751C140 174.011 142.472 175.517 144.706 175.174C145.454 175.06 146.22 175 147 175C155.284 175 162 181.716 162 190C162 198.284 155.284 205 147 205C146.22 205 145.454 204.94 144.706 204.826C142.472 204.483 140 205.989 140 208.249L140 237C140 238.657 141.343 240 143 240L171.751 240C174.011 240 175.517 237.528 175.174 235.294C175.06 234.546 175 233.78 175 233C175 224.716 181.716 218 190 218C198.284 218 205 224.716 205 233C205 233.78 204.94 234.546 204.826 235.294C204.483 237.528 205.989 240 208.249 240L237 240C238.657 240 240 238.657 240 237L240 208.249C240 205.989 242.472 204.483 244.706 204.826C245.454 204.94 246.22 205 247 205C255.284 205 262 198.284 262 190C262 181.716 255.284 175 247 175Z" fill="#DCDCDC"/>
<path d="M244.706 204.826L244.857 203.837L244.706 204.826ZM175.174 235.294L176.163 235.143L175.174 235.294ZM140 171.751L141 171.751L140 171.751ZM204.826 235.294L203.837 235.143L204.826 235.294ZM140 143L139 143L140 143ZM204.826 144.706L205.814 144.554L204.826 144.706ZM175.174 144.706L176.163 144.857L175.174 144.706ZM144.706 204.826L144.857 203.837L144.706 204.826ZM244.857 176.163C245.555 176.056 246.271 176 247 176L247 174C246.169 174 245.352 174.063 244.554 174.186L244.857 176.163ZM239 143L239 171.751L241 171.751L241 143L239 143ZM208.249 141L237 141L237 139L208.249 139L208.249 141ZM203.837 144.857C203.944 145.555 204 146.271 204 147L206 147C206 146.169 205.937 145.352 205.814 144.554L203.837 144.857ZM204 147C204 154.732 197.732 161 190 161L190 163C198.837 163 206 155.837 206 147L204 147ZM190 161C182.268 161 176 154.732 176 147L174 147C174 155.837 181.163 163 190 163L190 161ZM176 147C176 146.271 176.056 145.555 176.163 144.857L174.186 144.554C174.063 145.352 174 146.169 174 147L176 147ZM143 141L171.751 141L171.751 139L143 139L143 141ZM141 171.751L141 143L139 143L139 171.751L141 171.751ZM147 174C146.169 174 145.352 174.063 144.554 174.186L144.857 176.163C145.555 176.056 146.271 176 147 176L147 174ZM163 190C163 181.163 155.837 174 147 174L147 176C154.732 176 161 182.268 161 190L163 190ZM147 206C155.837 206 163 198.837 163 190L161 190C161 197.732 154.732 204 147 204L147 206ZM144.554 205.814C145.352 205.937 146.169 206 147 206L147 204C146.271 204 145.555 203.944 144.857 203.837L144.554 205.814ZM141 237L141 208.249L139 208.249L139 237L141 237ZM171.751 239L143 239L143 241L171.751 241L171.751 239ZM174 233C174 233.831 174.063 234.648 174.186 235.446L176.163 235.143C176.056 234.445 176 233.729 176 233L174 233ZM190 217C181.163 217 174 224.163 174 233L176 233C176 225.268 182.268 219 190 219L190 217ZM206 233C206 224.163 198.837 217 190 217L190 219C197.732 219 204 225.268 204 233L206 233ZM205.814 235.446C205.937 234.648 206 233.831 206 233L204 233C204 233.729 203.944 234.445 203.837 235.143L205.814 235.446ZM237 239L208.249 239L208.249 241L237 241L237 239ZM239 208.249L239 237L241 237L241 208.249L239 208.249ZM247 204C246.271 204 245.555 203.944 244.857 203.837L244.554 205.814C245.352 205.937 246.169 206 247 206L247 204ZM261 190C261 197.732 254.732 204 247 204L247 206C255.837 206 263 198.837 263 190L261 190ZM247 176C254.732 176 261 182.268 261 190L263 190C263 181.163 255.837 174 247 174L247 176ZM241 208.249C241 207.516 241.395 206.857 242.081 206.386C242.776 205.908 243.697 205.683 244.554 205.814L244.857 203.837C243.48 203.626 242.049 203.982 240.949 204.737C239.841 205.498 239 206.722 239 208.249L241 208.249ZM171.751 241C173.278 241 174.502 240.159 175.263 239.051C176.018 237.951 176.374 236.52 176.163 235.143L174.186 235.446C174.317 236.303 174.092 237.224 173.614 237.919C173.143 238.605 172.484 239 171.751 239L171.751 241ZM237 241C239.209 241 241 239.209 241 237L239 237C239 238.105 238.105 239 237 239L237 241ZM139 171.751C139 173.278 139.841 174.502 140.949 175.263C142.049 176.018 143.48 176.374 144.857 176.163L144.554 174.186C143.697 174.317 142.776 174.092 142.081 173.614C141.395 173.143 141 172.484 141 171.751L139 171.751ZM203.837 235.143C203.626 236.52 203.982 237.951 204.737 239.051C205.498 240.159 206.722 241 208.249 241L208.249 239C207.516 239 206.857 238.605 206.386 237.919C205.908 237.224 205.683 236.303 205.814 235.446L203.837 235.143ZM143 139C140.791 139 139 140.791 139 143L141 143C141 141.895 141.895 141 143 141L143 139ZM139 237C139 239.209 140.791 241 143 241L143 239C141.895 239 141 238.105 141 237L139 237ZM208.249 139C206.722 139 205.498 139.841 204.737 140.949C203.982 142.049 203.626 143.48 203.837 144.857L205.814 144.554C205.683 143.697 205.908 142.776 206.386 142.081C206.857 141.395 207.516 141 208.249 141L208.249 139ZM176.163 144.857C176.374 143.48 176.018 142.049 175.263 140.949C174.502 139.841 173.278 139 171.751 139L171.751 141C172.484 141 173.143 141.395 173.614 142.081C174.092 142.776 174.317 143.697 174.186 144.554L176.163 144.857ZM144.857 203.837C143.48 203.626 142.049 203.982 140.949 204.737C139.841 205.498 139 206.722 139 208.249L141 208.249C141 207.516 141.395 206.857 142.081 206.386C142.776 205.908 143.697 205.683 144.554 205.814L144.857 203.837ZM241 143C241 140.791 239.209 139 237 139L237 141C238.105 141 239 141.895 239 143L241 143ZM244.554 174.186C243.697 174.317 242.776 174.092 242.081 173.614C241.395 173.143 241 172.484 241 171.751L239 171.751C239 173.278 239.841 174.502 240.949 175.263C242.049 176.018 243.48 176.374 244.857 176.163L244.554 174.186Z" fill="white" mask="url(#path-11-inside-4_19_693)"/>
<mask id="path-14-inside-5_19_693" fill="white">
<path fill-rule="evenodd" clip-rule="evenodd" d="M144.706 73.8256C142.472 73.4827 140 74.9892 140 77.2491L140 106C140 107.657 141.343 109 143 109H171.751C174.011 109 175.517 111.472 175.174 113.706C175.06 114.454 175 115.22 175 116C175 124.284 181.716 131 190 131C198.284 131 205 124.284 205 116C205 115.22 204.94 114.454 204.826 113.706C204.483 111.472 205.989 109 208.249 109H237C238.657 109 240 107.657 240 106V77.2491C240 74.9892 237.528 73.4827 235.294 73.8256C234.546 73.9404 233.78 74 233 74C224.716 74 218 67.2843 218 59C218 50.7157 224.716 44 233 44C233.78 44 234.546 44.0596 235.294 44.1744C237.528 44.5173 240 43.0108 240 40.7509V12C240 10.3431 238.657 9 237 9L143 9C141.343 9 140 10.3431 140 12V40.7509C140 43.0108 142.472 44.5173 144.706 44.1744C145.454 44.0596 146.22 44 147 44C155.284 44 162 50.7157 162 59C162 67.2843 155.284 74 147 74C146.22 74 145.454 73.9404 144.706 73.8256Z"/>
</mask>
<path fill-rule="evenodd" clip-rule="evenodd" d="M144.706 73.8256C142.472 73.4827 140 74.9892 140 77.2491L140 106C140 107.657 141.343 109 143 109H171.751C174.011 109 175.517 111.472 175.174 113.706C175.06 114.454 175 115.22 175 116C175 124.284 181.716 131 190 131C198.284 131 205 124.284 205 116C205 115.22 204.94 114.454 204.826 113.706C204.483 111.472 205.989 109 208.249 109H237C238.657 109 240 107.657 240 106V77.2491C240 74.9892 237.528 73.4827 235.294 73.8256C234.546 73.9404 233.78 74 233 74C224.716 74 218 67.2843 218 59C218 50.7157 224.716 44 233 44C233.78 44 234.546 44.0596 235.294 44.1744C237.528 44.5173 240 43.0108 240 40.7509V12C240 10.3431 238.657 9 237 9L143 9C141.343 9 140 10.3431 140 12V40.7509C140 43.0108 142.472 44.5173 144.706 44.1744C145.454 44.0596 146.22 44 147 44C155.284 44 162 50.7157 162 59C162 67.2843 155.284 74 147 74C146.22 74 145.454 73.9404 144.706 73.8256Z" fill="#B4B4B4"/>
<path d="M144.706 44.1744L144.554 43.186L144.706 44.1744ZM175.174 113.706L174.186 113.554L175.174 113.706ZM235.294 44.1744L235.143 45.1628L235.294 44.1744ZM141 106L141 77.2491H139L139 106H141ZM171.751 108H143V110H171.751L171.751 108ZM176 116C176 115.271 176.056 114.555 176.163 113.857L174.186 113.554C174.063 114.352 174 115.169 174 116H176ZM190 130C182.268 130 176 123.732 176 116H174C174 124.837 181.163 132 190 132V130ZM204 116C204 123.732 197.732 130 190 130V132C198.837 132 206 124.837 206 116H204ZM203.837 113.857C203.944 114.555 204 115.271 204 116H206C206 115.169 205.937 114.352 205.814 113.554L203.837 113.857ZM237 108H208.249V110H237V108ZM239 77.2491V106H241V77.2491H239ZM233 75C233.831 75 234.648 74.9365 235.446 74.814L235.143 72.8372C234.445 72.9443 233.729 73 233 73V75ZM217 59C217 67.8366 224.163 75 233 75V73C225.268 73 219 66.732 219 59H217ZM233 43C224.163 43 217 50.1634 217 59H219C219 51.268 225.268 45 233 45V43ZM235.446 43.186C234.648 43.0635 233.831 43 233 43V45C233.729 45 234.445 45.0557 235.143 45.1628L235.446 43.186ZM239 12V40.7509H241V12H239ZM143 10L237 10V8L143 8V10ZM141 40.7509V12H139V40.7509H141ZM144.857 45.1628C145.555 45.0557 146.271 45 147 45V43C146.169 43 145.352 43.0635 144.554 43.186L144.857 45.1628ZM147 45C154.732 45 161 51.268 161 59L163 59C163 50.1634 155.837 43 147 43V45ZM161 59C161 66.732 154.732 73 147 73V75C155.837 75 163 67.8366 163 59L161 59ZM147 73C146.271 73 145.555 72.9443 144.857 72.8372L144.554 74.814C145.352 74.9365 146.169 75 147 75V73ZM139 40.7509C139 42.2778 139.841 43.502 140.949 44.263C142.049 45.0183 143.48 45.3742 144.857 45.1628L144.554 43.186C143.697 43.3175 142.776 43.0916 142.081 42.6144C141.395 42.143 141 41.484 141 40.7509H139ZM143 8C140.791 8 139 9.79086 139 12H141C141 10.8954 141.895 10 143 10V8ZM241 77.2491C241 75.7222 240.159 74.498 239.051 73.737C237.951 72.9817 236.52 72.6258 235.143 72.8372L235.446 74.814C236.303 74.6825 237.224 74.9084 237.919 75.3856C238.605 75.857 239 76.516 239 77.2491H241ZM237 110C239.209 110 241 108.209 241 106H239C239 107.105 238.105 108 237 108V110ZM241 12C241 9.79086 239.209 8 237 8V10C238.105 10 239 10.8954 239 12H241ZM171.751 110C172.484 110 173.143 110.395 173.614 111.081C174.092 111.776 174.317 112.697 174.186 113.554L176.163 113.857C176.374 112.48 176.018 111.049 175.263 109.949C174.502 108.841 173.278 108 171.751 108L171.751 110ZM205.814 113.554C205.683 112.697 205.908 111.776 206.386 111.081C206.857 110.395 207.516 110 208.249 110V108C206.722 108 205.498 108.841 204.737 109.949C203.982 111.049 203.626 112.48 203.837 113.857L205.814 113.554ZM235.143 45.1628C236.52 45.3742 237.951 45.0183 239.051 44.263C240.159 43.502 241 42.2778 241 40.7509H239C239 41.484 238.605 42.143 237.919 42.6144C237.224 43.0916 236.303 43.3175 235.446 43.186L235.143 45.1628ZM141 77.2491C141 76.516 141.395 75.857 142.081 75.3856C142.776 74.9084 143.697 74.6825 144.554 74.814L144.857 72.8372C143.48 72.6258 142.049 72.9817 140.949 73.737C139.841 74.498 139 75.7222 139 77.2491H141ZM139 106C139 108.209 140.791 110 143 110V108C141.895 108 141 107.105 141 106H139Z" fill="white" mask="url(#path-14-inside-5_19_693)"/>
<mask id="path-17-inside-6_19_693" fill="white">
<path fill-rule="evenodd" clip-rule="evenodd" d="M244.706 306.174C242.472 306.517 240 305.011 240 302.751L240 274C240 272.343 238.657 271 237 271L208.249 271C205.989 271 204.483 268.528 204.826 266.294C204.94 265.546 205 264.78 205 264C205 255.716 198.284 249 190 249C181.716 249 175 255.716 175 264C175 264.78 175.06 265.546 175.174 266.294C175.517 268.528 174.011 271 171.751 271L143 271C141.343 271 140 272.343 140 274L140 302.751C140 305.011 137.528 306.517 135.294 306.174C134.546 306.06 133.78 306 133 306C124.716 306 118 312.716 118 321C118 329.284 124.716 336 133 336C133.78 336 134.546 335.94 135.294 335.826C137.528 335.483 140 336.989 140 339.249L140 368C140 369.657 141.343 371 143 371L237 371C238.657 371 240 369.657 240 368L240 339.249C240 336.989 242.472 335.483 244.706 335.826C245.454 335.94 246.22 336 247 336C255.284 336 262 329.284 262 321C262 312.716 255.284 306 247 306C246.22 306 245.454 306.06 244.706 306.174Z"/>
</mask>
<path fill-rule="evenodd" clip-rule="evenodd" d="M244.706 306.174C242.472 306.517 240 305.011 240 302.751L240 274C240 272.343 238.657 271 237 271L208.249 271C205.989 271 204.483 268.528 204.826 266.294C204.94 265.546 205 264.78 205 264C205 255.716 198.284 249 190 249C181.716 249 175 255.716 175 264C175 264.78 175.06 265.546 175.174 266.294C175.517 268.528 174.011 271 171.751 271L143 271C141.343 271 140 272.343 140 274L140 302.751C140 305.011 137.528 306.517 135.294 306.174C134.546 306.06 133.78 306 133 306C124.716 306 118 312.716 118 321C118 329.284 124.716 336 133 336C133.78 336 134.546 335.94 135.294 335.826C137.528 335.483 140 336.989 140 339.249L140 368C140 369.657 141.343 371 143 371L237 371C238.657 371 240 369.657 240 368L240 339.249C240 336.989 242.472 335.483 244.706 335.826C245.454 335.94 246.22 336 247 336C255.284 336 262 329.284 262 321C262 312.716 255.284 306 247 306C246.22 306 245.454 306.06 244.706 306.174Z" fill="#B4B4B4"/>
<path d="M262 321L263 321L262 321ZM140 302.751L139 302.751L140 302.751ZM135.294 306.174L135.446 305.186L135.294 306.174ZM140 274L141 274L140 274ZM208.249 271L208.249 272L208.249 271ZM204.826 266.294L205.814 266.446L204.826 266.294ZM175.174 266.294L174.186 266.446L175.174 266.294ZM244.706 306.174L244.554 305.186L244.706 306.174ZM237 271L237 272L237 271ZM239 274L239 302.751L241 302.751L241 274L239 274ZM208.249 272L237 272L237 270L208.249 270L208.249 272ZM204 264C204 264.729 203.944 265.445 203.837 266.143L205.814 266.446C205.937 265.648 206 264.831 206 264L204 264ZM190 250C197.732 250 204 256.268 204 264L206 264C206 255.163 198.837 248 190 248L190 250ZM176 264C176 256.268 182.268 250 190 250L190 248C181.163 248 174 255.163 174 264L176 264ZM176.163 266.143C176.056 265.445 176 264.729 176 264L174 264C174 264.831 174.063 265.648 174.186 266.446L176.163 266.143ZM143 272L171.751 272L171.751 270L143 270L143 272ZM141 302.751L141 274L139 274L139 302.751L141 302.751ZM133 307C133.729 307 134.445 307.056 135.143 307.163L135.446 305.186C134.648 305.063 133.831 305 133 305L133 307ZM119 321C119 313.268 125.268 307 133 307L133 305C124.163 305 117 312.163 117 321L119 321ZM133 335C125.268 335 119 328.732 119 321L117 321C117 329.837 124.163 337 133 337L133 335ZM135.143 334.837C134.445 334.944 133.729 335 133 335L133 337C133.831 337 134.648 336.937 135.446 336.814L135.143 334.837ZM141 368L141 339.249L139 339.249L139 368L141 368ZM237 370L143 370L143 372L237 372L237 370ZM239 339.249L239 368L241 368L241 339.249L239 339.249ZM247 335C246.271 335 245.555 334.944 244.857 334.837L244.554 336.814C245.352 336.937 246.169 337 247 337L247 335ZM261 321C261 328.732 254.732 335 247 335L247 337C255.837 337 263 329.837 263 321L261 321ZM247 307C254.732 307 261 313.268 261 321L263 321C263 312.163 255.837 305 247 305L247 307ZM244.857 307.163C245.555 307.056 246.271 307 247 307L247 305C246.169 305 245.352 305.063 244.554 305.186L244.857 307.163ZM241 339.249C241 338.516 241.395 337.857 242.081 337.386C242.776 336.908 243.697 336.683 244.554 336.814L244.857 334.837C243.48 334.626 242.049 334.982 240.949 335.737C239.841 336.498 239 337.722 239 339.249L241 339.249ZM237 372C239.209 372 241 370.209 241 368L239 368C239 369.105 238.105 370 237 370L237 372ZM139 302.751C139 303.484 138.605 304.143 137.919 304.614C137.224 305.092 136.303 305.317 135.446 305.186L135.143 307.163C136.52 307.374 137.951 307.018 139.051 306.263C140.159 305.502 141 304.278 141 302.751L139 302.751ZM143 270C140.791 270 139 271.791 139 274L141 274C141 272.895 141.895 272 143 272L143 270ZM139 368C139 370.209 140.791 372 143 372L143 370C141.895 370 141 369.105 141 368L139 368ZM208.249 270C207.516 270 206.857 269.605 206.386 268.919C205.908 268.224 205.683 267.303 205.814 266.446L203.837 266.143C203.626 267.52 203.982 268.951 204.737 270.051C205.498 271.159 206.722 272 208.249 272L208.249 270ZM174.186 266.446C174.317 267.303 174.092 268.224 173.614 268.919C173.143 269.605 172.484 270 171.751 270L171.751 272C173.278 272 174.502 271.159 175.263 270.051C176.018 268.951 176.374 267.52 176.163 266.143L174.186 266.446ZM135.446 336.814C136.303 336.683 137.224 336.908 137.919 337.386C138.605 337.857 139 338.516 139 339.249L141 339.249C141 337.722 140.159 336.498 139.051 335.737C137.951 334.982 136.52 334.626 135.143 334.837L135.446 336.814ZM239 302.751C239 304.278 239.841 305.502 240.949 306.263C242.049 307.018 243.48 307.374 244.857 307.163L244.554 305.186C243.697 305.317 242.776 305.092 242.081 304.614C241.395 304.143 241 303.484 241 302.751L239 302.751ZM241 274C241 271.791 239.209 270 237 270L237 272C238.105 272 239 272.895 239 274L241 274Z" fill="white" mask="url(#path-17-inside-6_19_693)"/>
<mask id="path-20-inside-7_19_693" fill="white">
<path fill-rule="evenodd" clip-rule="evenodd" d="M266.294 44.1744C268.528 44.5173 271 43.0108 271 40.7509V12C271 10.3431 272.343 9 274 9L368 9C369.657 9 371 10.3431 371 12V106C371 107.657 369.657 109 368 109H339.249C336.989 109 335.483 111.472 335.826 113.706C335.94 114.454 336 115.22 336 116C336 124.284 329.284 131 321 131C312.716 131 306 124.284 306 116C306 115.22 306.06 114.454 306.174 113.706C306.517 111.472 305.011 109 302.751 109L274 109C272.343 109 271 107.657 271 106V77.2491C271 74.9892 268.528 73.4827 266.294 73.8256C265.546 73.9404 264.78 74 264 74C255.716 74 249 67.2843 249 59C249 50.7157 255.716 44 264 44C264.78 44 265.546 44.0596 266.294 44.1744Z"/>
</mask>
<path fill-rule="evenodd" clip-rule="evenodd" d="M266.294 44.1744C268.528 44.5173 271 43.0108 271 40.7509V12C271 10.3431 272.343 9 274 9L368 9C369.657 9 371 10.3431 371 12V106C371 107.657 369.657 109 368 109H339.249C336.989 109 335.483 111.472 335.826 113.706C335.94 114.454 336 115.22 336 116C336 124.284 329.284 131 321 131C312.716 131 306 124.284 306 116C306 115.22 306.06 114.454 306.174 113.706C306.517 111.472 305.011 109 302.751 109L274 109C272.343 109 271 107.657 271 106V77.2491C271 74.9892 268.528 73.4827 266.294 73.8256C265.546 73.9404 264.78 74 264 74C255.716 74 249 67.2843 249 59C249 50.7157 255.716 44 264 44C264.78 44 265.546 44.0596 266.294 44.1744Z" fill="#DCDCDC"/>
<path d="M249 59H248H249ZM266.294 73.8256L266.143 72.8372L266.294 73.8256ZM270 12V40.7509H272V12H270ZM368 8L274 8V10L368 10V8ZM372 106V12H370V106H372ZM339.249 110H368V108H339.249V110ZM337 116C337 115.169 336.937 114.352 336.814 113.554L334.837 113.857C334.944 114.555 335 115.271 335 116H337ZM321 132C329.837 132 337 124.837 337 116H335C335 123.732 328.732 130 321 130V132ZM305 116C305 124.837 312.163 132 321 132V130C313.268 130 307 123.732 307 116H305ZM305.186 113.554C305.063 114.352 305 115.169 305 116H307C307 115.271 307.056 114.555 307.163 113.857L305.186 113.554ZM274 110L302.751 110V108L274 108V110ZM270 77.2491V106H272V77.2491H270ZM266.143 72.8372C265.445 72.9443 264.729 73 264 73V75C264.831 75 265.648 74.9365 266.446 74.814L266.143 72.8372ZM264 73C256.268 73 250 66.732 250 59H248C248 67.8366 255.163 75 264 75V73ZM250 59C250 51.268 256.268 45 264 45V43C255.163 43 248 50.1634 248 59H250ZM264 45C264.729 45 265.445 45.0557 266.143 45.1628L266.446 43.186C265.648 43.0635 264.831 43 264 43V45ZM272 77.2491C272 75.7222 271.159 74.498 270.051 73.737C268.951 72.9817 267.52 72.6258 266.143 72.8372L266.446 74.814C267.303 74.6825 268.224 74.9084 268.919 75.3856C269.605 75.857 270 76.516 270 77.2491H272ZM274 108C272.895 108 272 107.105 272 106H270C270 108.209 271.791 110 274 110V108ZM307.163 113.857C307.374 112.48 307.018 111.049 306.263 109.949C305.502 108.841 304.278 108 302.751 108V110C303.484 110 304.143 110.395 304.614 111.081C305.092 111.776 305.317 112.697 305.186 113.554L307.163 113.857ZM339.249 108C337.722 108 336.498 108.841 335.737 109.949C334.982 111.049 334.626 112.48 334.837 113.857L336.814 113.554C336.683 112.697 336.908 111.776 337.386 111.081C337.857 110.395 338.516 110 339.249 110V108ZM370 106C370 107.105 369.105 108 368 108V110C370.209 110 372 108.209 372 106H370ZM368 10C369.105 10 370 10.8954 370 12H372C372 9.79086 370.209 8 368 8V10ZM270 40.7509C270 41.484 269.605 42.1429 268.919 42.6144C268.224 43.0916 267.303 43.3175 266.446 43.186L266.143 45.1628C267.52 45.3742 268.951 45.0182 270.051 44.263C271.159 43.502 272 42.2778 272 40.7509H270ZM272 12C272 10.8954 272.895 10 274 10V8C271.791 8 270 9.79086 270 12H272Z" fill="white" mask="url(#path-20-inside-7_19_693)"/>
<mask id="path-23-inside-8_19_693" fill="white">
<path fill-rule="evenodd" clip-rule="evenodd" d="M306.174 144.706C306.517 142.472 305.011 140 302.751 140L274 140C272.343 140 271 141.343 271 143L271 171.751C271 174.011 273.472 175.517 275.706 175.174C276.454 175.06 277.22 175 278 175C286.284 175 293 181.716 293 190C293 198.284 286.284 205 278 205C277.22 205 276.454 204.94 275.706 204.826C273.472 204.483 271 205.989 271 208.249L271 237C271 238.657 272.343 240 274 240L302.751 240C305.011 240 306.517 242.472 306.174 244.706C306.06 245.454 306 246.22 306 247C306 255.284 312.716 262 321 262C329.284 262 336 255.284 336 247C336 246.22 335.94 245.454 335.826 244.706C335.483 242.472 336.989 240 339.249 240L368 240C369.657 240 371 238.657 371 237L371 143C371 141.343 369.657 140 368 140L339.249 140C336.989 140 335.483 142.472 335.826 144.706C335.94 145.454 336 146.22 336 147C336 155.284 329.284 162 321 162C312.716 162 306 155.284 306 147C306 146.22 306.06 145.454 306.174 144.706Z"/>
</mask>
<path fill-rule="evenodd" clip-rule="evenodd" d="M306.174 144.706C306.517 142.472 305.011 140 302.751 140L274 140C272.343 140 271 141.343 271 143L271 171.751C271 174.011 273.472 175.517 275.706 175.174C276.454 175.06 277.22 175 278 175C286.284 175 293 181.716 293 190C293 198.284 286.284 205 278 205C277.22 205 276.454 204.94 275.706 204.826C273.472 204.483 271 205.989 271 208.249L271 237C271 238.657 272.343 240 274 240L302.751 240C305.011 240 306.517 242.472 306.174 244.706C306.06 245.454 306 246.22 306 247C306 255.284 312.716 262 321 262C329.284 262 336 255.284 336 247C336 246.22 335.94 245.454 335.826 244.706C335.483 242.472 336.989 240 339.249 240L368 240C369.657 240 371 238.657 371 237L371 143C371 141.343 369.657 140 368 140L339.249 140C336.989 140 335.483 142.472 335.826 144.706C335.94 145.454 336 146.22 336 147C336 155.284 329.284 162 321 162C312.716 162 306 155.284 306 147C306 146.22 306.06 145.454 306.174 144.706Z" fill="#B4B4B4"/>
<path d="M335.826 144.706L336.814 144.554L335.826 144.706ZM306.174 244.706L305.186 244.554L306.174 244.706ZM275.706 175.174L275.554 174.186L275.706 175.174ZM274 141L302.751 141L302.751 139L274 139L274 141ZM272 171.751L272 143L270 143L270 171.751L272 171.751ZM278 174C277.169 174 276.352 174.063 275.554 174.186L275.857 176.163C276.555 176.056 277.271 176 278 176L278 174ZM294 190C294 181.163 286.837 174 278 174L278 176C285.732 176 292 182.268 292 190L294 190ZM278 206C286.837 206 294 198.837 294 190L292 190C292 197.732 285.732 204 278 204L278 206ZM275.554 205.814C276.352 205.937 277.169 206 278 206L278 204C277.271 204 276.555 203.944 275.857 203.837L275.554 205.814ZM272 237L272 208.249L270 208.249L270 237L272 237ZM302.751 239L274 239L274 241L302.751 241L302.751 239ZM307 247C307 246.271 307.056 245.555 307.163 244.857L305.186 244.554C305.063 245.352 305 246.169 305 247L307 247ZM321 261C313.268 261 307 254.732 307 247L305 247C305 255.837 312.163 263 321 263L321 261ZM335 247C335 254.732 328.732 261 321 261L321 263C329.837 263 337 255.837 337 247L335 247ZM334.837 244.857C334.944 245.555 335 246.271 335 247L337 247C337 246.169 336.937 245.352 336.814 244.554L334.837 244.857ZM368 239L339.249 239L339.249 241L368 241L368 239ZM370 143L370 237L372 237L372 143L370 143ZM339.249 141L368 141L368 139L339.249 139L339.249 141ZM334.837 144.857C334.944 145.555 335 146.271 335 147L337 147C337 146.169 336.937 145.352 336.814 144.554L334.837 144.857ZM335 147C335 154.732 328.732 161 321 161L321 163C329.837 163 337 155.837 337 147L335 147ZM321 161C313.268 161 307 154.732 307 147L305 147C305 155.837 312.163 163 321 163L321 161ZM307 147C307 146.271 307.056 145.555 307.163 144.857L305.186 144.554C305.063 145.352 305 146.169 305 147L307 147ZM339.249 139C337.722 139 336.498 139.841 335.737 140.949C334.982 142.049 334.626 143.48 334.837 144.857L336.814 144.554C336.683 143.697 336.908 142.776 337.386 142.081C337.857 141.395 338.516 141 339.249 141L339.249 139ZM372 143C372 140.791 370.209 139 368 139L368 141C369.105 141 370 141.895 370 143L372 143ZM302.751 241C303.484 241 304.143 241.395 304.614 242.081C305.092 242.776 305.317 243.697 305.186 244.554L307.163 244.857C307.374 243.48 307.018 242.049 306.263 240.949C305.502 239.841 304.278 239 302.751 239L302.751 241ZM270 237C270 239.209 271.791 241 274 241L274 239C272.895 239 272 238.105 272 237L270 237ZM368 241C370.209 241 372 239.209 372 237L370 237C370 238.105 369.105 239 368 239L368 241ZM270 171.751C270 173.278 270.841 174.502 271.949 175.263C273.049 176.018 274.48 176.374 275.857 176.163L275.554 174.186C274.697 174.317 273.776 174.092 273.081 173.614C272.395 173.143 272 172.484 272 171.751L270 171.751ZM275.857 203.837C274.48 203.626 273.049 203.982 271.949 204.737C270.841 205.498 270 206.722 270 208.249L272 208.249C272 207.516 272.395 206.857 273.081 206.386C273.776 205.908 274.697 205.683 275.554 205.814L275.857 203.837ZM336.814 244.554C336.683 243.697 336.908 242.776 337.386 242.081C337.857 241.395 338.516 241 339.249 241L339.249 239C337.722 239 336.498 239.841 335.737 240.949C334.982 242.049 334.626 243.48 334.837 244.857L336.814 244.554ZM302.751 141C303.484 141 304.143 141.395 304.614 142.081C305.092 142.776 305.317 143.697 305.186 144.554L307.163 144.857C307.374 143.48 307.018 142.049 306.263 140.949C305.502 139.841 304.278 139 302.751 139L302.751 141ZM274 139C271.791 139 270 140.791 270 143L272 143C272 141.895 272.895 141 274 141L274 139Z" fill="white" mask="url(#path-23-inside-8_19_693)"/>
<mask id="path-26-inside-9_19_693" fill="white">
<path fill-rule="evenodd" clip-rule="evenodd" d="M368 271C369.657 271 371 272.343 371 274L371 368C371 369.657 369.657 371 368 371L274 371C272.343 371 271 369.657 271 368L271 339.249C271 336.989 273.472 335.483 275.706 335.826C276.454 335.94 277.22 336 278 336C286.284 336 293 329.284 293 321C293 312.716 286.284 306 278 306C277.22 306 276.454 306.06 275.706 306.174C273.472 306.517 271 305.011 271 302.751L271 274C271 272.343 272.343 271 274 271L302.751 271C305.011 271 306.517 273.472 306.174 275.706C306.06 276.454 306 277.22 306 278C306 286.284 312.716 293 321 293C329.284 293 336 286.284 336 278C336 277.22 335.94 276.454 335.826 275.706C335.483 273.472 336.989 271 339.249 271L368 271Z"/>
</mask>
<path fill-rule="evenodd" clip-rule="evenodd" d="M368 271C369.657 271 371 272.343 371 274L371 368C371 369.657 369.657 371 368 371L274 371C272.343 371 271 369.657 271 368L271 339.249C271 336.989 273.472 335.483 275.706 335.826C276.454 335.94 277.22 336 278 336C286.284 336 293 329.284 293 321C293 312.716 286.284 306 278 306C277.22 306 276.454 306.06 275.706 306.174C273.472 306.517 271 305.011 271 302.751L271 274C271 272.343 272.343 271 274 271L302.751 271C305.011 271 306.517 273.472 306.174 275.706C306.06 276.454 306 277.22 306 278C306 286.284 312.716 293 321 293C329.284 293 336 286.284 336 278C336 277.22 335.94 276.454 335.826 275.706C335.483 273.472 336.989 271 339.249 271L368 271Z" fill="#DCDCDC"/>
<path d="M306.174 275.706L307.163 275.857L306.174 275.706ZM271 274L272 274L271 274ZM274 271L274 270L274 271ZM271 339.249L270 339.249L271 339.249ZM271 302.751L270 302.751L271 302.751ZM335.826 275.706L334.837 275.857L335.826 275.706ZM271 368L272 368L271 368ZM372 368L372 274L370 274L370 368L372 368ZM274 372L368 372L368 370L274 370L274 372ZM270 339.249L270 368L272 368L272 339.249L270 339.249ZM278 335C277.271 335 276.555 334.944 275.857 334.837L275.554 336.814C276.352 336.937 277.169 337 278 337L278 335ZM292 321C292 328.732 285.732 335 278 335L278 337C286.837 337 294 329.837 294 321L292 321ZM278 307C285.732 307 292 313.268 292 321L294 321C294 312.163 286.837 305 278 305L278 307ZM275.857 307.163C276.555 307.056 277.271 307 278 307L278 305C277.169 305 276.352 305.063 275.554 305.186L275.857 307.163ZM270 274L270 302.751L272 302.751L272 274L270 274ZM302.751 270L274 270L274 272L302.751 272L302.751 270ZM307 278C307 277.271 307.056 276.555 307.163 275.857L305.186 275.554C305.063 276.352 305 277.169 305 278L307 278ZM321 292C313.268 292 307 285.732 307 278L305 278C305 286.837 312.163 294 321 294L321 292ZM335 278C335 285.732 328.732 292 321 292L321 294C329.837 294 337 286.837 337 278L335 278ZM334.837 275.857C334.944 276.555 335 277.271 335 278L337 278C337 277.169 336.937 276.352 336.814 275.554L334.837 275.857ZM368 270L339.249 270L339.249 272L368 272L368 270ZM302.751 272C303.484 272 304.143 272.395 304.614 273.081C305.092 273.776 305.317 274.697 305.186 275.554L307.163 275.857C307.374 274.48 307.018 273.049 306.263 271.949C305.502 270.841 304.278 270 302.751 270L302.751 272ZM272 274C272 272.895 272.895 272 274 272L274 270C271.791 270 270 271.791 270 274L272 274ZM272 339.249C272 338.516 272.395 337.857 273.081 337.386C273.776 336.908 274.697 336.683 275.554 336.814L275.857 334.837C274.48 334.626 273.049 334.982 271.949 335.737C270.841 336.498 270 337.722 270 339.249L272 339.249ZM275.554 305.186C274.697 305.317 273.776 305.092 273.081 304.614C272.395 304.143 272 303.484 272 302.751L270 302.751C270 304.278 270.841 305.502 271.949 306.263C273.049 307.018 274.48 307.374 275.857 307.163L275.554 305.186ZM336.814 275.554C336.683 274.697 336.908 273.776 337.386 273.081C337.857 272.395 338.516 272 339.249 272L339.249 270C337.722 270 336.498 270.841 335.737 271.949C334.982 273.049 334.626 274.48 334.837 275.857L336.814 275.554ZM274 370C272.895 370 272 369.105 272 368L270 368C270 370.209 271.791 372 274 372L274 370ZM372 274C372 271.791 370.209 270 368 270L368 272C369.105 272 370 272.895 370 274L372 274ZM370 368C370 369.105 369.105 370 368 370L368 372C370.209 372 372 370.209 372 368L370 368Z" fill="white" mask="url(#path-26-inside-9_19_693)"/>
</svg>
